<mxfile host="app.diagrams.net" modified="2024-03-18T07:35:56.301Z" agent="Mozilla/5.0 (Windows NT 10.0; Win64; x64) AppleWebKit/537.36 (KHTML, like Gecko) Chrome/122.0.0.0 Safari/537.36" etag="JAonbxO4_PTD4Vhf8P2q" version="24.0.7" type="device">
  <diagram name="Page-1" id="Nei9JYgXUHfJtWIt6BAU">
    <mxGraphModel dx="1050" dy="1630" grid="1" gridSize="10" guides="1" tooltips="1" connect="1" arrows="1" fold="1" page="1" pageScale="1" pageWidth="850" pageHeight="1100" math="0" shadow="0">
      <root>
        <mxCell id="0" />
        <mxCell id="1" parent="0" />
        <mxCell id="YNSnLRENxpWJx3K029_7-5" value="" style="swimlane;startSize=0;" vertex="1" parent="1">
          <mxGeometry x="285" y="-410" width="305" height="280" as="geometry" />
        </mxCell>
        <mxCell id="YNSnLRENxpWJx3K029_7-6" value="" style="endArrow=none;html=1;rounded=0;" edge="1" parent="1" source="YNSnLRENxpWJx3K029_7-5" target="YNSnLRENxpWJx3K029_7-5">
          <mxGeometry width="50" height="50" relative="1" as="geometry">
            <mxPoint x="375" y="-280" as="sourcePoint" />
            <mxPoint x="425" y="-330" as="targetPoint" />
          </mxGeometry>
        </mxCell>
        <mxCell id="YNSnLRENxpWJx3K029_7-8" value="" style="endArrow=none;html=1;rounded=0;entryX=0.5;entryY=0;entryDx=0;entryDy=0;" edge="1" parent="1" target="YNSnLRENxpWJx3K029_7-5">
          <mxGeometry width="50" height="50" relative="1" as="geometry">
            <mxPoint x="438" y="-130" as="sourcePoint" />
            <mxPoint x="440" y="-280" as="targetPoint" />
            <Array as="points">
              <mxPoint x="438" y="-130" />
            </Array>
          </mxGeometry>
        </mxCell>
        <mxCell id="YNSnLRENxpWJx3K029_7-9" value="" style="endArrow=none;html=1;rounded=0;exitX=0;exitY=0.5;exitDx=0;exitDy=0;entryX=1;entryY=0.5;entryDx=0;entryDy=0;" edge="1" parent="1" source="YNSnLRENxpWJx3K029_7-5" target="YNSnLRENxpWJx3K029_7-5">
          <mxGeometry width="50" height="50" relative="1" as="geometry">
            <mxPoint x="400" y="-230" as="sourcePoint" />
            <mxPoint x="450" y="-280" as="targetPoint" />
          </mxGeometry>
        </mxCell>
        <mxCell id="YNSnLRENxpWJx3K029_7-10" value="" style="endArrow=none;html=1;rounded=0;entryX=0.75;entryY=0;entryDx=0;entryDy=0;exitX=0.75;exitY=1;exitDx=0;exitDy=0;" edge="1" parent="1" source="YNSnLRENxpWJx3K029_7-5" target="YNSnLRENxpWJx3K029_7-5">
          <mxGeometry width="50" height="50" relative="1" as="geometry">
            <mxPoint x="400" y="-230" as="sourcePoint" />
            <mxPoint x="450" y="-280" as="targetPoint" />
          </mxGeometry>
        </mxCell>
        <mxCell id="YNSnLRENxpWJx3K029_7-11" value="" style="endArrow=none;html=1;rounded=0;exitX=0.25;exitY=1;exitDx=0;exitDy=0;entryX=0.25;entryY=0;entryDx=0;entryDy=0;" edge="1" parent="1" source="YNSnLRENxpWJx3K029_7-5" target="YNSnLRENxpWJx3K029_7-5">
          <mxGeometry width="50" height="50" relative="1" as="geometry">
            <mxPoint x="400" y="-230" as="sourcePoint" />
            <mxPoint x="450" y="-280" as="targetPoint" />
          </mxGeometry>
        </mxCell>
        <mxCell id="YNSnLRENxpWJx3K029_7-12" value="" style="endArrow=none;html=1;rounded=0;entryX=1;entryY=0.25;entryDx=0;entryDy=0;exitX=0;exitY=0.25;exitDx=0;exitDy=0;" edge="1" parent="1" source="YNSnLRENxpWJx3K029_7-5" target="YNSnLRENxpWJx3K029_7-5">
          <mxGeometry width="50" height="50" relative="1" as="geometry">
            <mxPoint x="400" y="-230" as="sourcePoint" />
            <mxPoint x="450" y="-280" as="targetPoint" />
          </mxGeometry>
        </mxCell>
        <mxCell id="YNSnLRENxpWJx3K029_7-14" value="" style="endArrow=none;html=1;rounded=0;exitX=0;exitY=0.75;exitDx=0;exitDy=0;entryX=1;entryY=0.75;entryDx=0;entryDy=0;" edge="1" parent="1" source="YNSnLRENxpWJx3K029_7-5" target="YNSnLRENxpWJx3K029_7-5">
          <mxGeometry width="50" height="50" relative="1" as="geometry">
            <mxPoint x="310" y="-150" as="sourcePoint" />
            <mxPoint x="360" y="-200" as="targetPoint" />
          </mxGeometry>
        </mxCell>
      </root>
    </mxGraphModel>
  </diagram>
</mxfile>
